<svg width="14" height="9" viewBox="0 0 14 9" fill="none" xmlns="http://www.w3.org/2000/svg">
<path d="M13.911 4.22535C13.786 4.05278 10.806 0 6.99994 0C3.19392 0 0.213774 4.05278 0.0888401 4.22518C-0.0296134 4.3889 -0.0296134 4.61094 0.0888401 4.77465C0.213774 4.94722 3.19392 9 6.99994 9C10.806 9 13.786 4.94719 13.911 4.77479C14.0297 4.6111 14.0297 4.3889 13.911 4.22535ZM6.99994 8.06897C4.1964 8.06897 1.76824 5.37906 1.04946 4.49968C1.76731 3.61954 4.19039 0.93103 6.99994 0.93103C9.80334 0.93103 12.2313 3.62047 12.9504 4.50032C12.2326 5.38043 9.80949 8.06897 6.99994 8.06897Z" fill="#96979B"/>
<path d="M6.99994 1.7069C5.473 1.7069 4.23069 2.95992 4.23069 4.50001C4.23069 6.04011 5.473 7.29313 6.99994 7.29313C8.52687 7.29313 9.76919 6.04011 9.76919 4.50001C9.76919 2.95992 8.52687 1.7069 6.99994 1.7069ZM6.99994 6.36207C5.98193 6.36207 5.15379 5.52677 5.15379 4.50001C5.15379 3.47326 5.98196 2.63795 6.99994 2.63795C8.01792 2.63795 8.84608 3.47326 8.84608 4.50001C8.84608 5.52677 8.01795 6.36207 6.99994 6.36207Z" fill="#96979B"/>
</svg>
